# xmcd CD database file
#
# Track frame offsets:
#	150
#	59825
#	97650
#
# Disc length: 3282 seconds
#
# Revision: 1
# Processed by: cddbd v1.5.2PL0 Copyright (c) Steve Scherf et al.
# Submitted via: CDex 1.70beta3
#
DISCID=1f0cd003
DTITLE=Paul G. Smyth - Chris Corsano - Psychic Armour
DYEAR=2016
DGENRE=Jazz
TTITLE0=Taming in the Power Cut
TTITLE1=THe Through Line
TTITLE2=Psychic Aemour
EXTD=YEAR: 2016
EXTT0=
EXTT1=
EXTT2=
PLAYORDER=
